<svg width="121" height="120" viewBox="0 0 121 120" fill="none" xmlns="http://www.w3.org/2000/svg">
<rect x="0.5" width="120" height="120" rx="41" fill="#4A3AFF" fill-opacity="0.2"/>
<path fill-rule="evenodd" clip-rule="evenodd" d="M62.0379 101.956C58.8401 100.071 55.7031 98.0848 52.6317 96.0001C49.4984 93.8751 46.49 91.5835 43.6067 89.1251C40.7442 86.6543 38.0609 84.0001 35.5567 81.1626C33.0567 78.3189 30.8504 75.2251 28.9942 71.9251C27.1266 68.5881 25.6582 65.0429 24.6192 61.3626C23.5271 57.461 22.9824 53.4267 23.0004 49.3751V29.3751L26.1254 26.2501C28.2088 26.2501 30.2296 26.1751 32.1879 26.0251C34.0421 25.8793 35.8796 25.6126 37.7004 25.2251C39.4754 24.8335 41.2088 24.3001 42.9004 23.6251C44.6796 22.8876 46.3796 21.9981 48.0004 20.9564C50.2939 19.4462 52.7838 18.258 55.4004 17.4251C59.4582 16.2527 63.7178 15.9502 67.9004 16.5376C70.5904 16.9103 73.2017 17.7189 75.6317 18.9314C76.8733 19.5356 78.0817 20.2064 79.2567 20.9439C80.8859 21.9856 82.5963 22.8772 84.3879 23.6189C86.0754 24.298 87.8067 24.8314 89.5817 25.2189C91.4067 25.6106 93.2484 25.8793 95.1067 26.0251C97.0525 26.171 99.0671 26.2439 101.15 26.2439L104.275 29.3689V49.3689C104.3 53.4216 103.762 57.4581 102.675 61.3626C101.636 65.0429 100.168 68.5881 98.3004 71.9251C96.4368 75.222 94.2376 78.3176 91.7379 81.1626C89.2379 83.996 86.5588 86.6418 83.7004 89.1001C80.8165 91.5615 77.795 93.8569 74.6504 95.9751C71.5667 98.0633 68.4194 100.056 65.2129 101.95H62.0379V101.956ZM29.2504 32.4376V49.3751C29.2254 52.8439 29.6879 56.3126 30.6254 59.6564C31.5253 62.8659 32.8052 65.9566 34.4379 68.8626C36.0879 71.7876 38.0254 74.5126 40.2504 77.0376C42.5629 79.6501 45.0379 82.096 47.6754 84.3751C50.3754 86.6793 53.1921 88.8251 56.1254 90.8126C58.6254 92.4793 61.1254 94.0814 63.6254 95.6189C66.1254 94.1064 68.6254 92.5064 71.1254 90.8189C74.0671 88.8231 76.89 86.6751 79.5942 84.3751C82.2275 82.096 84.6984 79.6543 87.0067 77.0501C89.2201 74.5322 91.1679 71.7928 92.8192 68.8751C94.4504 65.9689 95.7317 62.8751 96.6317 59.6689C97.5692 56.3126 98.0254 52.8564 98.0067 49.3751V32.4376C97.0129 32.4376 96.0504 32.3626 95.1004 32.2939L94.6067 32.2564C92.4683 32.0869 90.3431 31.78 88.2442 31.3376C83.8602 30.3818 79.6794 28.6595 75.8942 26.2501C74.9219 25.6325 73.9162 25.0692 72.8817 24.5626C71.0265 23.6477 69.0367 23.0358 66.9879 22.7501C63.7319 22.2757 60.4122 22.5016 57.2504 23.4126C55.1754 24.0876 53.1942 25.0376 51.3754 26.2376C49.4254 27.4876 47.3775 28.5564 45.2317 29.4439C43.2042 30.2529 41.1139 30.8947 38.9817 31.3626C36.8859 31.8043 34.7671 32.1085 32.6254 32.2751C31.5338 32.3418 30.4088 32.396 29.2504 32.4376ZM67.1567 59.3126C69.1707 58.4937 70.8375 57.0002 71.8718 55.0877C72.906 53.1753 73.2434 50.9628 72.8262 48.8291C72.409 46.6953 71.2631 44.7728 69.5846 43.3908C67.9062 42.0088 65.7996 41.2531 63.6254 41.2531C61.4512 41.2531 59.3447 42.0088 57.6662 43.3908C55.9878 44.7728 54.8419 46.6953 54.4247 48.8291C54.0074 50.9628 54.3448 53.1753 55.3791 55.0877C56.4133 57.0002 58.0801 58.4937 60.0942 59.3126L57.3754 75.6251H69.8754L67.1567 59.3126Z" fill="#4A3AFF"/>
</svg>
