<svg width="121" height="120" viewBox="0 0 121 120" fill="none" xmlns="http://www.w3.org/2000/svg">
<rect x="0.5" width="120" height="120" rx="41" fill="#4A3AFF" fill-opacity="0.2"/>
<path d="M74.0417 88.125C74.875 88.125 75.6042 87.8125 76.2292 87.1875C76.8542 86.5625 77.1667 85.8333 77.1667 85C77.1667 84.1667 76.8542 83.4375 76.2292 82.8125C75.6042 82.1875 74.875 81.875 74.0417 81.875C73.2083 81.875 72.4792 82.1875 71.8542 82.8125C71.2292 83.4375 70.9167 84.1667 70.9167 85C70.9167 85.8333 71.2292 86.5625 71.8542 87.1875C72.4792 87.8125 73.2083 88.125 74.0417 88.125ZM85.5 88.125C86.3333 88.125 87.0625 87.8125 87.6875 87.1875C88.3125 86.5625 88.625 85.8333 88.625 85C88.625 84.1667 88.3125 83.4375 87.6875 82.8125C87.0625 82.1875 86.3333 81.875 85.5 81.875C84.6667 81.875 83.9375 82.1875 83.3125 82.8125C82.6875 83.4375 82.375 84.1667 82.375 85C82.375 85.8333 82.6875 86.5625 83.3125 87.1875C83.9375 87.8125 84.6667 88.125 85.5 88.125ZM96.9583 88.125C97.7917 88.125 98.5208 87.8125 99.1458 87.1875C99.7708 86.5625 100.083 85.8333 100.083 85C100.083 84.1667 99.7708 83.4375 99.1458 82.8125C98.5208 82.1875 97.7917 81.875 96.9583 81.875C96.125 81.875 95.3958 82.1875 94.7708 82.8125C94.1458 83.4375 93.8333 84.1667 93.8333 85C93.8333 85.8333 94.1458 86.5625 94.7708 87.1875C95.3958 87.8125 96.125 88.125 96.9583 88.125ZM85.5 105.833C79.7361 105.833 74.8236 103.801 70.7625 99.7375C66.7014 95.6736 64.6694 90.7611 64.6667 85C64.6639 79.2389 66.6958 74.3264 70.7625 70.2625C74.8292 66.1986 79.7417 64.1667 85.5 64.1667C91.2583 64.1667 96.1722 66.1986 100.242 70.2625C104.311 74.3264 106.342 79.2389 106.333 85C106.325 90.7611 104.293 95.675 100.238 99.7417C96.182 103.808 91.2694 105.839 85.5 105.833ZM43.8333 47.5H77.1667C78.3472 47.5 79.3375 47.1 80.1375 46.3C80.9375 45.5 81.3361 44.5111 81.3333 43.3333C81.3306 42.1556 80.9306 41.1667 80.1333 40.3667C79.3361 39.5667 78.3472 39.1667 77.1667 39.1667H43.8333C42.6528 39.1667 41.6639 39.5667 40.8667 40.3667C40.0694 41.1667 39.6694 42.1556 39.6667 43.3333C39.6639 44.5111 40.0639 45.5014 40.8667 46.3042C41.6694 47.1069 42.6583 47.5056 43.8333 47.5ZM31.3333 97.5C29.0417 97.5 27.0806 96.6847 25.45 95.0542C23.8194 93.4236 23.0028 91.4611 23 89.1667V30.8333C23 28.5417 23.8167 26.5806 25.45 24.95C27.0833 23.3194 29.0444 22.5028 31.3333 22.5H89.6667C91.9583 22.5 93.9208 23.3167 95.5542 24.95C97.1875 26.5833 98.0028 28.5444 98 30.8333V53.5417C98 54.7917 97.4792 55.7639 96.4375 56.4583C95.3958 57.1528 94.2847 57.2917 93.1042 56.875C91.9236 56.5278 90.6903 56.2667 89.4042 56.0917C88.1181 55.9167 86.8167 55.8306 85.5 55.8333C84.7361 55.8333 84.0236 55.8514 83.3625 55.8875C82.7014 55.9236 82.025 56.0097 81.3333 56.1458C80.7083 56.0069 80.0139 55.9208 79.25 55.8875C78.4861 55.8542 77.7917 55.8361 77.1667 55.8333H43.8333C42.6528 55.8333 41.6639 56.2333 40.8667 57.0333C40.0694 57.8333 39.6694 58.8222 39.6667 60C39.6639 61.1778 40.0639 62.1681 40.8667 62.9708C41.6694 63.7736 42.6583 64.1722 43.8333 64.1667H65.1875C63.9375 65.3472 62.8097 66.632 61.8042 68.0208C60.7986 69.4097 59.9125 70.9028 59.1458 72.5H43.8333C42.6528 72.5 41.6639 72.9 40.8667 73.7C40.0694 74.5 39.6694 75.4889 39.6667 76.6667C39.6639 77.8444 40.0639 78.8347 40.8667 79.6375C41.6694 80.4403 42.6583 80.8389 43.8333 80.8333H56.6458C56.5069 81.5278 56.4208 82.2056 56.3875 82.8667C56.3542 83.5278 56.3361 84.2389 56.3333 85C56.3333 86.3889 56.4028 87.7083 56.5417 88.9583C56.6806 90.2083 56.9236 91.4236 57.2708 92.6042C57.6181 93.7847 57.4445 94.8958 56.75 95.9375C56.0556 96.9792 55.1181 97.5 53.9375 97.5H31.3333Z" fill="#4A3AFF"/>
</svg>
