<?xml version="1.0" standalone="no"?>
<!DOCTYPE svg PUBLIC "-//W3C//DTD SVG 20010904//EN"
 "http://www.w3.org/TR/2001/REC-SVG-20010904/DTD/svg10.dtd">
<svg version="1.0" xmlns="http://www.w3.org/2000/svg"
 width="116.000000pt" height="116.000000pt" viewBox="0 0 116.000000 116.000000"
 preserveAspectRatio="xMidYMid meet">
<metadata>
Created by potrace 1.14, written by Peter Selinger 2001-2017
</metadata>
<g transform="translate(0.000000,116.000000) scale(0.100000,-0.100000)"
fill="#000000" stroke="none">
<path d="M778 1016 c-84 -23 -163 -105 -188 -196 -5 -19 -10 -167 -10 -328 l0
-293 103 3 102 3 5 288 c4 241 7 289 20 297 25 16 49 11 66 -15 20 -31 11 -61
-27 -81 l-30 -15 3 -97 3 -97 62 1 c81 1 144 38 188 108 25 42 31 62 34 127 3
66 -1 86 -22 131 -59 129 -188 197 -309 164z"/>
<path d="M370 963 c-1 -16 -1 -129 -1 -253 0 -246 -7 -285 -51 -310 -25 -13
-31 -13 -55 0 -31 17 -49 66 -39 105 8 32 61 58 88 44 17 -9 18 -1 18 111 l0
120 -52 0 c-69 -1 -123 -26 -175 -82 -69 -76 -78 -100 -78 -213 0 -85 4 -107
24 -149 50 -102 132 -155 239 -156 83 0 142 28 193 92 64 81 69 113 69 435 l0
283 -90 0 -90 0 0 -27z"/>
</g>
</svg>
